<svg width="93" height="13" viewBox="0 0 93 13" fill="white" xmlns="http://www.w3.org/2000/svg">
<path d="M0.8 11.76L1.76 11.52V1.28L0.8 1.04V0.799999H5.12C6.74133 0.799999 7.93067 1.06133 8.688 1.584C9.456 2.096 9.84 2.768 9.84 3.6C9.84 4.176 9.67467 4.64 9.344 4.992C9.01333 5.344 8.592 5.60533 8.08 5.776C7.536 5.968 6.94933 6.06933 6.32 6.08V6.16C7.09867 6.192 7.776 6.30933 8.352 6.512C8.93867 6.704 9.424 7.00267 9.808 7.408C10.2027 7.81333 10.4 8.33067 10.4 8.96C10.4 9.90933 10.0107 10.656 9.232 11.2C8.45333 11.7333 7.18933 12 5.44 12H0.8V11.76ZM5.12 5.92C5.472 5.92 5.79733 5.824 6.096 5.632C6.40533 5.42933 6.65067 5.152 6.832 4.8C7.024 4.43733 7.12 4.03733 7.12 3.6C7.12 3.13067 7.024 2.71467 6.832 2.352C6.65067 1.98933 6.40533 1.70667 6.096 1.504C5.79733 1.30133 5.472 1.2 5.12 1.2H4.4V5.92H5.12ZM5.44 11.6C6.10133 11.6 6.64 11.3653 7.056 10.896C7.472 10.4267 7.68 9.78133 7.68 8.96C7.68 8.13867 7.472 7.49333 7.056 7.024C6.64 6.55467 6.10133 6.32 5.44 6.32H4.4V11.6H5.44ZM11.675 12V11.76L12.635 11.52V1.28L11.675 1.04V0.799999H16.235V1.04L15.275 1.28V11.52L16.235 11.76V12H11.675ZM17.675 11.76L18.635 11.52V1.28L17.675 1.04V0.799999H22.235V1.04L21.275 1.28V11.6H24.715C24.715 10.928 24.8857 10.304 25.227 9.728C25.3763 9.48267 25.5523 9.28 25.755 9.12H26.235V12H17.675V11.76ZM26.3206 11.76L27.6006 11.28L32.0006 0.639999H32.4806L37.0406 11.52L37.8406 11.76V12H35.9206C35.366 12 34.9126 11.8773 34.5606 11.632C34.2086 11.376 33.9473 11.0453 33.7766 10.64L32.9606 8.72H29.1366L28.0806 11.28L29.2806 11.76V12H26.3206V11.76ZM29.2966 8.32H32.8006L31.0406 4.112L29.2966 8.32ZM39.7556 3.52V11.28L41.0356 11.76V12H37.9956V11.76L39.2756 11.28V1.36L38.1556 1.04V0.799999H39.8356C40.401 0.799999 40.8436 0.901333 41.1636 1.104C41.4836 1.30667 41.7876 1.57867 42.0756 1.92L47.1956 7.92V1.52L45.9156 1.04V0.799999H48.9556V1.04L47.6756 1.52V12.24H47.1956L39.7556 3.52ZM50.0031 11.76L50.9631 11.52V1.28L50.0031 1.04V0.799999H58.5631V3.68H58.0831C57.8805 3.52 57.7045 3.31733 57.5551 3.072C57.2138 2.496 57.0431 1.872 57.0431 1.2H53.6031V6.24H55.4431C55.5178 5.83467 55.6565 5.456 55.8591 5.104C55.9445 4.944 56.0458 4.78933 56.1631 4.64H56.6431V8.24H56.1631C56.0458 8.09067 55.9445 7.936 55.8591 7.776C55.6565 7.424 55.5178 7.04533 55.4431 6.64H53.6031V11.6H57.3631C57.3631 10.928 57.5338 10.304 57.8751 9.728C58.0245 9.48267 58.2005 9.28 58.4031 9.12H58.8831V12H50.0031V11.76ZM61.7556 3.52V11.28L63.0356 11.76V12H59.9956V11.76L61.2756 11.28V1.36L60.1556 1.04V0.799999H61.8356C62.401 0.799999 62.8436 0.901333 63.1636 1.104C63.4836 1.30667 63.7876 1.57867 64.0756 1.92L69.1956 7.92V1.52L67.9156 1.04V0.799999H70.9556V1.04L69.6756 1.52V12.24H69.1956L61.7556 3.52ZM72.0031 11.76L72.9631 11.52V1.28L72.0031 1.04V0.799999H76.5631V1.04L75.6031 1.28V6.304L79.5231 1.52L78.3231 1.04V0.799999H81.3631V1.04L80.0831 1.52L77.2831 4.96L81.6031 11.52L82.4031 11.76V12H80.1631C79.6831 12 79.2725 11.8827 78.9311 11.648C78.6005 11.4027 78.2911 11.0667 78.0031 10.64L75.6031 6.96V11.52L76.5631 11.76V12H72.0031V11.76ZM87.6856 12.24C86.6403 12.24 85.723 12.016 84.9336 11.568C84.155 11.1093 83.5523 10.4427 83.1256 9.568C82.699 8.69333 82.4856 7.63733 82.4856 6.4C82.4856 5.16267 82.699 4.10667 83.1256 3.232C83.5523 2.35733 84.155 1.696 84.9336 1.248C85.723 0.789333 86.6403 0.559999 87.6856 0.559999C88.731 0.559999 89.643 0.789333 90.4216 1.248C91.211 1.696 91.819 2.35733 92.2456 3.232C92.6723 4.10667 92.8856 5.16267 92.8856 6.4C92.8856 7.63733 92.6723 8.69333 92.2456 9.568C91.819 10.4427 91.211 11.1093 90.4216 11.568C89.643 12.016 88.731 12.24 87.6856 12.24ZM87.6856 11.92C88.1016 11.92 88.4856 11.744 88.8376 11.392C89.2003 11.04 89.499 10.4533 89.7336 9.632C89.9683 8.81067 90.0856 7.73333 90.0856 6.4C90.0856 5.06667 89.9683 3.98933 89.7336 3.168C89.499 2.34667 89.2003 1.76 88.8376 1.408C88.4856 1.056 88.1016 0.879999 87.6856 0.879999C87.2696 0.879999 86.8803 1.056 86.5176 1.408C86.1656 1.76 85.8723 2.34667 85.6376 3.168C85.403 3.98933 85.2856 5.06667 85.2856 6.4C85.2856 7.73333 85.403 8.81067 85.6376 9.632C85.8723 10.4533 86.1656 11.04 86.5176 11.392C86.8803 11.744 87.2696 11.92 87.6856 11.92Z" />
</svg>
